<svg width="200" height="200" viewBox="0 0 200 200" fill="none" xmlns="http://www.w3.org/2000/svg">
  <defs>
    <linearGradient id="cue-gold" x1="0" y1="0" x2="1" y2="1">
      <stop offset="0" stop-color="#ffd75e"/>
      <stop offset="0.5" stop-color="#f2b01e"/>
      <stop offset="1" stop-color="#c98a12"/>
    </linearGradient>
    <radialGradient id="ball-red" cx="0.38" cy="0.34" r="0.75">
      <stop offset="0" stop-color="#ff4d4f"/>
      <stop offset="0.55" stop-color="#e01f26"/>
      <stop offset="1" stop-color="#9e0f14"/>
    </radialGradient>
  </defs>
  <path d="M58 50 C34 88 34 137 70 160 C114 187 172 168 190 132" stroke="url(#cue-gold)" stroke-width="15" stroke-linecap="round"/>
  <circle cx="110" cy="40" r="13" fill="url(#ball-red)"/>
  <circle cx="96" cy="64" r="13" fill="url(#ball-red)"/>
  <circle cx="124" cy="64" r="13" fill="url(#ball-red)"/>
  <circle cx="82" cy="88" r="13" fill="url(#ball-red)"/>
  <circle cx="110" cy="88" r="13" fill="url(#ball-red)"/>
  <circle cx="138" cy="88" r="13" fill="url(#ball-red)"/>
  <circle cx="68" cy="112" r="13" fill="url(#ball-red)"/>
  <circle cx="96" cy="112" r="13" fill="url(#ball-red)"/>
  <circle cx="124" cy="112" r="13" fill="url(#ball-red)"/>
  <circle cx="152" cy="112" r="13" fill="url(#ball-red)"/>
  <circle cx="54" cy="136" r="13" fill="url(#ball-red)"/>
  <circle cx="82" cy="136" r="13" fill="url(#ball-red)"/>
  <circle cx="110" cy="136" r="13" fill="url(#ball-red)"/>
  <circle cx="138" cy="136" r="13" fill="url(#ball-red)"/>
  <circle cx="166" cy="136" r="13" fill="url(#ball-red)"/>
</svg>
